<?xml version="1.0" standalone="no"?>
<!DOCTYPE svg PUBLIC "-//W3C//DTD SVG 20010904//EN"
 "http://www.w3.org/TR/2001/REC-SVG-20010904/DTD/svg10.dtd">
<svg version="1.0" xmlns="http://www.w3.org/2000/svg"
 width="240.000000pt" height="240.000000pt" viewBox="0 0 240.000000 240.000000"
 preserveAspectRatio="xMidYMid meet">
<metadata>
Created by potrace 1.14, written by Peter Selinger 2001-2017
</metadata>
<g transform="translate(0.000000,240.000000) scale(0.100000,-0.100000)"
fill="#000000" stroke="none">
<path d="M1110 2317 c-42 -39 -136 -128 -209 -197 -141 -132 -153 -143 -350
-328 -68 -65 -128 -120 -133 -123 -19 -12 -1 -38 107 -153 l109 -116 139 0
139 0 -60 63 c-100 104 -162 172 -162 178 0 6 217 214 279 267 21 18 27 19 29
7 3 -13 77 -15 603 -15 l599 0 0 -300 0 -300 -247 0 -248 0 105 -100 105 -99
243 -1 242 0 0 500 0 500 -600 0 -600 0 0 145 c0 80 -3 145 -7 145 -5 0 -42
-33 -83 -73z"/>
<path d="M1628 1780 c-40 -21 -73 -62 -83 -103 -5 -17 -14 -27 -25 -27 -10 0
-20 -7 -24 -15 -5 -13 5 -20 27 -16 4 0 7 -8 7 -20 0 -14 -5 -19 -14 -16 -14
5 -36 -10 -36 -25 0 -4 13 -8 29 -8 24 0 31 -5 36 -28 14 -65 97 -122 177
-122 55 0 72 11 65 42 -6 21 -11 23 -47 20 -48 -5 -83 15 -105 58 l-16 30 56
0 c50 0 60 5 53 28 -2 4 -23 8 -48 8 -66 2 -70 3 -64 18 4 10 20 13 57 12 61
-3 77 1 77 20 0 11 -16 14 -64 14 -59 0 -64 2 -59 20 14 52 76 84 135 69 22
-6 27 -3 33 18 3 14 4 28 1 30 -3 3 -33 7 -68 9 -48 2 -72 -2 -100 -16z"/>
<path d="M1200 1351 l0 -151 -600 0 -600 0 0 -450 0 -450 600 0 600 0 0 -146
c0 -82 4 -144 9 -142 5 1 65 56 132 120 68 64 140 131 160 150 20 18 94 88
165 154 71 67 145 136 164 154 145 133 172 164 156 176 -9 6 -78 70 -154 141
-75 72 -153 145 -172 163 -19 18 -88 82 -154 144 -65 61 -135 126 -155 145
-20 18 -62 58 -93 88 l-58 55 0 -151z m-535 -371 c-2 -11 -1 -20 3 -21 15 -1
58 -9 78 -14 19 -4 21 -9 14 -37 -4 -22 -12 -32 -21 -29 -81 21 -143 6 -137
-32 2 -16 23 -32 72 -58 95 -49 120 -79 113 -138 -6 -51 -39 -88 -88 -98 -19
-3 -29 -12 -31 -27 -2 -13 -10 -21 -23 -21 -13 0 -19 6 -17 16 2 12 -8 19 -35
23 -21 4 -50 12 -65 18 -23 9 -27 15 -22 37 10 40 12 41 57 27 24 -7 51 -12
62 -10 53 8 65 15 65 38 0 30 -11 39 -80 66 -98 38 -129 92 -95 163 15 32 64
67 94 67 6 0 12 5 12 10 1 6 3 15 4 20 1 6 3 12 4 15 0 3 10 5 20 5 14 0 19
-6 16 -20z"/>
</g>
</svg>
